<svg width="363" height="272" xmlns="http://www.w3.org/2000/svg" xmlns:xlink="http://www.w3.org/1999/xlink" overflow="hidden"><defs><clipPath id="clip0"><rect x="0" y="0" width="363" height="272"/></clipPath></defs><g clip-path="url(#clip0)"><rect x="0" y="0" width="363" height="271.709" fill="#FFFFFF"/><path d="M96.4999 136.853C96.4999 89.6834 134.78 51.4448 182 51.4448 229.22 51.4448 267.5 89.6834 267.5 136.853 267.5 184.023 229.22 222.262 182 222.262 134.78 222.262 96.4999 184.023 96.4999 136.853Z" stroke="#172C51" stroke-width="1.33395" stroke-miterlimit="8" fill="none" fill-rule="evenodd"/><path d="M70.5 135.854 182 135.854 182 24.4737 182 24.4737 182 135.854 293.5 135.854 293.5 136.853 182 136.853 182 248.234 182 248.234 182 136.853 70.5 136.853Z" stroke="#172C51" stroke-width="1.33395" stroke-miterlimit="8" fill="#4472C4" fill-rule="evenodd"/><path d="M183.561 135.294 238.638 190.312 236.516 192.432 181.439 137.414ZM239.699 187.132 242.883 196.672 233.332 193.492Z" fill="#4472C4"/><path d="M242.5 136.354 242.5 196.672" stroke="#4472C4" stroke-width="0.666973" stroke-miterlimit="8" stroke-dasharray="5.33578 2.00092" fill="none" fill-rule="evenodd"/><path d="M182.5 197.288 242.883 197.289" stroke="#4472C4" stroke-width="0.666973" stroke-miterlimit="8" stroke-dasharray="5.33578 2.00092" fill="none" fill-rule="evenodd"/><path d="M182.231 116.17C187.778 114.373 194.529 119.86 197.308 128.426 200.088 136.991 197.845 145.391 192.298 147.187 197.568 144.538 199.14 135.592 195.808 127.206 192.934 119.973 187.254 115.356 182.231 116.17Z" stroke="#172C51" stroke-width="1.33381" stroke-miterlimit="8" fill="#4472C4" fill-rule="evenodd"/><path d="M182 134.855 235.713 134.855 235.713 136.854 182 136.854ZM234.379 131.857 242.383 135.854 234.379 139.852Z" fill="#ED7D31"/><path d="M183 135.854 183.001 189.51 181 189.51 181 135.854ZM186.002 188.177 182 196.172 177.998 188.177Z" fill="#70AD47"/><text font-family="Times New Roman,Times New Roman_MSFontService,sans-serif" font-weight="700" font-size="13" transform="matrix(1 0 0 0.998929 213.159 149)">u</text><text font-family="Times New Roman,Times New Roman_MSFontService,sans-serif" font-weight="700" font-size="13" transform="matrix(1 0 0 0.998929 173.887 171)">v</text><text fill="#111111" font-family="Times New Roman,Times New Roman_MSFontService,sans-serif" font-weight="400" font-size="13" transform="matrix(1 0 0 0.998929 204.047 127)">θ</text><text font-family="Times New Roman,Times New Roman_MSFontService,sans-serif" font-weight="700" font-size="13" transform="matrix(1 0 0 0.998929 209.294 180)">F</text><text font-family="Times New Roman,Times New Roman_MSFontService,sans-serif" font-weight="700" font-size="13" transform="matrix(1 0 0 0.998929 191.193 250)">S</text><text font-family="Times New Roman,Times New Roman_MSFontService,sans-serif" font-weight="700" font-size="13" transform="matrix(1 0 0 0.998929 287.449 153)">E</text><text font-family="Times New Roman,Times New Roman_MSFontService,sans-serif" font-weight="700" font-size="13" transform="matrix(1 0 0 0.998929 74.3826 153)">W</text><text font-family="Times New Roman,Times New Roman_MSFontService,sans-serif" font-weight="700" font-size="13" transform="matrix(1 0 0 0.998929 191.118 35)">N</text></g></svg>