<svg width="824" height="433" xmlns="http://www.w3.org/2000/svg" xmlns:xlink="http://www.w3.org/1999/xlink" overflow="hidden"><g transform="translate(-427 -147)"><path d="M488.5 360.5C488.5 276.553 556.553 208.5 640.5 208.5 724.447 208.5 792.5 276.553 792.5 360.5 792.5 444.447 724.447 512.5 640.5 512.5 556.553 512.5 488.5 444.447 488.5 360.5Z" stroke="#172C51" stroke-width="1.33333" stroke-miterlimit="8" fill="none" fill-rule="evenodd"/><path d="M441.5 360.5 640.5 360.5 640.5 161.5 640.5 161.5 640.5 360.5 839.5 360.5 839.5 360.5 640.5 360.5 640.5 559.5 640.5 559.5 640.5 360.5 441.5 360.5Z" stroke="#172C51" stroke-width="1.33333" stroke-miterlimit="8" fill="#4472C4" fill-rule="evenodd"/><path d="M641.561 359.439 743.555 461.434 741.434 463.555 639.439 361.561ZM744.616 458.252 747.798 467.798 738.252 464.616Z" fill="#4472C4"/><path d="M747.5 360.5 747.5 467.798" stroke="#4472C4" stroke-width="0.666667" stroke-miterlimit="8" stroke-dasharray="5.33333 2" fill="none" fill-rule="evenodd"/><path d="M640.5 467.5 747.798 467.5" stroke="#4472C4" stroke-width="0.666667" stroke-miterlimit="8" stroke-dasharray="5.33333 2" fill="none" fill-rule="evenodd"/><path d="M641.275 324.723C651.131 321.528 663.126 331.289 668.066 346.525 673.006 361.762 669.02 376.704 659.163 379.9 668.528 375.187 671.32 359.274 665.399 344.355 660.293 331.49 650.199 323.276 641.275 324.723Z" stroke="#172C51" stroke-width="1.33333" stroke-miterlimit="8" fill="#4472C4" fill-rule="evenodd"/><path d="M640 359 740.631 359 740.631 361 640 361ZM739.298 356 747.298 360 739.298 364Z" fill="#ED7D31"/><path d="M641 360 641 460.631 639 460.631 639 360ZM644 459.298 640 467.298 636 459.298Z" fill="#70AD47"/><text font-family="Times New Roman,Times New Roman_MSFontService,sans-serif" font-weight="700" font-size="24" transform="translate(689.071 380)">u</text><text font-family="Times New Roman,Times New Roman_MSFontService,sans-serif" font-weight="700" font-size="24" transform="translate(620.211 419)">v</text><text fill="#111111" font-family="Times New Roman,Times New Roman_MSFontService,sans-serif" font-weight="400" font-size="24" transform="translate(673.215 340)">θ</text><text font-family="Times New Roman,Times New Roman_MSFontService,sans-serif" font-weight="700" font-size="24" transform="translate(683.214 434)">F</text><text font-family="Times New Roman,Times New Roman_MSFontService,sans-serif" font-weight="700" font-size="24" transform="translate(650.543 559)">S</text><text font-family="Times New Roman,Times New Roman_MSFontService,sans-serif" font-weight="700" font-size="24" transform="translate(821.839 386)">E</text><text font-family="Times New Roman,Times New Roman_MSFontService,sans-serif" font-weight="700" font-size="24" transform="translate(442.165 386)">W</text><text font-family="Times New Roman,Times New Roman_MSFontService,sans-serif" font-weight="700" font-size="24" transform="translate(649.6 177)">N</text><text font-family="Cambria Math,Cambria Math_MSFontService,sans-serif" font-weight="400" font-size="27" transform="translate(1019.53 334)">𝒖</text><text font-family="Cambria Math,Cambria Math_MSFontService,sans-serif" font-weight="400" font-size="27" transform="translate(1044.1 334)">=</text><path d="M1111.6 314.061 1113.63 314.061 1113.63 338.596 1111.6 338.596ZM1105.86 314.061 1107.89 314.061 1107.89 338.596 1105.86 338.596ZM1080.5 314.061 1082.53 314.061 1082.53 338.596 1080.5 338.596ZM1074.76 314.061 1076.79 314.061 1076.79 338.596 1074.76 338.596Z" fill="#836967" fill-rule="evenodd"/><text font-family="Cambria Math,Cambria Math_MSFontService,sans-serif" font-weight="400" font-size="27" transform="translate(1085.61 334)">𝑭</text><text font-family="Cambria Math,Cambria Math_MSFontService,sans-serif" font-weight="400" font-size="27" transform="translate(1122.63 334)">⋅</text><text font-family="Cambria Math,Cambria Math_MSFontService,sans-serif" font-weight="400" font-size="27" transform="translate(1136.06 334)">𝐬𝐢𝐧</text><text font-family="Cambria Math,Cambria Math_MSFontService,sans-serif" font-weight="400" font-size="27" transform="translate(1178.51 334)">𝜽</text><text font-family="Cambria Math,Cambria Math_MSFontService,sans-serif" font-weight="400" font-size="27" transform="translate(1020.76 385)">𝒗</text><text font-family="Cambria Math,Cambria Math_MSFontService,sans-serif" font-weight="400" font-size="27" transform="translate(1044.17 385)">=</text><path d="M1111.66 365.034 1113.7 365.034 1113.7 389.569 1111.66 389.569ZM1105.93 365.034 1107.96 365.034 1107.96 389.569 1105.93 389.569ZM1080.56 365.034 1082.6 365.034 1082.6 389.569 1080.56 389.569ZM1074.83 365.034 1076.86 365.034 1076.86 389.569 1074.83 389.569Z" fill="#836967" fill-rule="evenodd"/><text font-family="Cambria Math,Cambria Math_MSFontService,sans-serif" font-weight="400" font-size="27" transform="translate(1085.67 385)">𝑭</text><text font-family="Cambria Math,Cambria Math_MSFontService,sans-serif" font-weight="400" font-size="27" transform="translate(1122.7 385)">⋅</text><text font-family="Cambria Math,Cambria Math_MSFontService,sans-serif" font-weight="400" font-size="27" transform="translate(1136.13 385)">𝐜𝐨𝐬</text><text font-family="Cambria Math,Cambria Math_MSFontService,sans-serif" font-weight="400" font-size="27" transform="translate(1181.57 385)">𝜽</text></g></svg>