<svg width="363" height="272" xmlns="http://www.w3.org/2000/svg" xmlns:xlink="http://www.w3.org/1999/xlink" overflow="hidden"><defs><clipPath id="clip0"><rect x="0" y="0" width="363" height="272"/></clipPath></defs><g clip-path="url(#clip0)"><rect x="0" y="0" width="363" height="271.709" fill="#FFFFFF"/><path d="M70.5 135.854 182 135.854 182 24.4737 182 24.4737 182 135.854 293.5 135.854 293.5 136.853 182 136.853 182 248.234 182 248.234 182 136.853 70.5 136.853Z" stroke="#172C51" stroke-width="1.33395" stroke-miterlimit="8" fill="#4472C4" fill-rule="evenodd"/><path d="M183.561 135.294 238.638 190.312 236.516 192.432 181.439 137.414ZM239.699 187.132 242.883 196.672 233.332 193.492Z" fill="#4472C4"/><path d="M210.832 123.044C216.407 124.752 218.784 133.115 216.141 141.723 213.497 150.332 206.835 155.925 201.26 154.217 207.098 155.068 213.524 148.642 215.612 139.864 217.413 132.293 215.413 125.256 210.832 123.044Z" stroke="#172C51" stroke-width="1.33382" stroke-miterlimit="8" fill="#4472C4" fill-rule="evenodd"/><text fill="#111111" font-family="Times New Roman,Times New Roman_MSFontService,sans-serif" font-weight="400" font-size="13" transform="matrix(1 0 0 0.998929 225.482 153)">θ</text><text font-family="Times New Roman,Times New Roman_MSFontService,sans-serif" font-weight="700" font-size="13" transform="matrix(1 0 0 0.998929 230.531 176)">F1</text><text font-family="Times New Roman,Times New Roman_MSFontService,sans-serif" font-weight="400" font-size="13" transform="matrix(1 0 0 0.998929 249.04 176)">(u1,v1)</text><text font-family="Times New Roman,Times New Roman_MSFontService,sans-serif" font-weight="700" font-size="13" transform="matrix(1 0 0 0.998929 191.18 250)">S</text><text font-family="Times New Roman,Times New Roman_MSFontService,sans-serif" font-weight="700" font-size="13" transform="matrix(1 0 0 0.998929 287.436 153)">E</text><text font-family="Times New Roman,Times New Roman_MSFontService,sans-serif" font-weight="700" font-size="13" transform="matrix(1 0 0 0.998929 74.3692 153)">W</text><text font-family="Times New Roman,Times New Roman_MSFontService,sans-serif" font-weight="700" font-size="13" transform="matrix(1 0 0 0.998929 191.105 35)">N</text><path d="M0.660823-1.34557 87.708 41.4042 86.3864 44.0953-0.660823 1.34557ZM87.6841 38.0522 93.7751 46.0539 83.7192 46.1256Z" fill="#4472C4" transform="matrix(1.00107 0 0 -1 181.5 136.457)"/><text font-family="Times New Roman,Times New Roman_MSFontService,sans-serif" font-weight="700" font-size="13" transform="matrix(1 0 0 0.998929 251.488 119)">F2</text><text font-family="Times New Roman,Times New Roman_MSFontService,sans-serif" font-weight="400" font-size="13" transform="matrix(1 0 0 0.998929 273.331 119)">(u2,v2)</text></g></svg>