<svg width="858" height="433" xmlns="http://www.w3.org/2000/svg" xmlns:xlink="http://www.w3.org/1999/xlink" overflow="hidden"><g transform="translate(-427 -147)"><path d="M441.5 360.5 640.5 360.5 640.5 161.5 640.5 161.5 640.5 360.5 839.5 360.5 839.5 360.5 640.5 360.5 640.5 559.5 640.5 559.5 640.5 360.5 441.5 360.5Z" stroke="#172C51" stroke-width="1.33333" stroke-miterlimit="8" fill="#4472C4" fill-rule="evenodd"/><path d="M641.561 359.439 743.555 461.434 741.434 463.555 639.439 361.561ZM744.616 458.252 747.798 467.798 738.252 464.616Z" fill="#4472C4"/><path d="M692.121 336.952C702.028 339.991 706.25 354.867 701.554 370.181 696.857 385.494 685.018 395.444 675.112 392.406 685.486 393.92 696.904 382.488 700.615 366.873 703.815 353.406 700.261 340.887 692.121 336.952Z" stroke="#172C51" stroke-width="1.33333" stroke-miterlimit="8" fill="#4472C4" fill-rule="evenodd"/><text fill="#111111" font-family="Times New Roman,Times New Roman_MSFontService,sans-serif" font-weight="400" font-size="24" transform="translate(711.328 387)">θ</text><text font-family="Times New Roman,Times New Roman_MSFontService,sans-serif" font-weight="700" font-size="24" transform="translate(719.659 429)">F1 (u1,v1)</text><text font-family="Times New Roman,Times New Roman_MSFontService,sans-serif" font-weight="700" font-size="24" transform="translate(650.543 559)">S</text><text font-family="Times New Roman,Times New Roman_MSFontService,sans-serif" font-weight="700" font-size="24" transform="translate(821.839 386)">E</text><text font-family="Times New Roman,Times New Roman_MSFontService,sans-serif" font-weight="700" font-size="24" transform="translate(442.165 386)">W</text><text font-family="Times New Roman,Times New Roman_MSFontService,sans-serif" font-weight="700" font-size="24" transform="translate(649.599 177)">N</text><path d="M0.661225-1.3464 160.743 77.271 159.421 79.9638-0.661225 1.3464ZM160.719 73.9168 166.814 81.9234 156.752 81.9952Z" fill="#4472C4" transform="matrix(1 0 0 -1 640.5 360.423)"/><text font-family="Times New Roman,Times New Roman_MSFontService,sans-serif" font-weight="700" font-size="24" transform="translate(756.898 326)">F2 (u2,v2)</text><text font-family="Cambria Math,Cambria Math_MSFontService,sans-serif" font-weight="400" font-size="27" transform="translate(976.3 377)">𝜽</text><text font-family="Cambria Math,Cambria Math_MSFontService,sans-serif" font-weight="400" font-size="27" transform="translate(1000.37 377)">=</text><text font-family="Cambria Math,Cambria Math_MSFontService,sans-serif" font-weight="400" font-size="27" transform="translate(1027.78 377)">𝐚𝐫𝐜𝐜𝐨𝐬</text><path d="M1265.48 334.994C1269.1 338.088 1271.96 342.702 1274.09 348.837 1276.21 354.972 1277.27 361.818 1277.27 369.377 1277.27 376.821 1276.21 383.657 1274.09 389.884 1271.96 396.111 1269.1 400.763 1265.48 403.839L1264.86 402.863C1267.98 399.69 1270.39 395.098 1272.08 389.086 1273.76 383.075 1274.61 376.509 1274.61 369.39 1274.61 362.104 1273.76 355.508 1272.06 349.601 1270.37 343.695 1267.97 339.156 1264.86 335.983ZM1127.39 334.994 1128.01 335.983C1124.9 339.156 1122.5 343.695 1120.81 349.601 1119.12 355.508 1118.27 362.104 1118.27 369.39 1118.27 376.509 1119.12 383.075 1120.8 389.086 1122.49 395.098 1124.89 399.69 1128.01 402.863L1127.39 403.839C1123.78 400.763 1120.91 396.111 1118.79 389.884 1116.67 383.657 1115.61 376.821 1115.61 369.377 1115.61 361.818 1116.67 354.972 1118.79 348.837 1120.91 342.702 1123.78 338.088 1127.39 334.994Z" fill="#836967" fill-rule="evenodd"/><text font-family="Cambria Math,Cambria Math_MSFontService,sans-serif" font-weight="400" font-size="27" transform="translate(1156.89 357)">𝑭</text><text font-family="Cambria Math,Cambria Math_MSFontService,sans-serif" font-weight="400" font-size="20" transform="translate(1173.89 362)">𝟏</text><text font-family="Cambria Math,Cambria Math_MSFontService,sans-serif" font-weight="400" font-size="27" transform="translate(1192.59 357)">⋅</text><text font-family="Cambria Math,Cambria Math_MSFontService,sans-serif" font-weight="400" font-size="27" transform="translate(1206.02 357)">𝑭</text><text font-family="Cambria Math,Cambria Math_MSFontService,sans-serif" font-weight="400" font-size="20" transform="translate(1223.02 362)">𝟐</text><path d="M1181.56 375.003 1183.59 375.003 1183.59 399.538 1181.56 399.538ZM1175.82 375.003 1177.85 375.003 1177.85 399.538 1175.82 399.538ZM1137.68 375.003 1139.72 375.003 1139.72 399.538 1137.68 399.538ZM1131.95 375.003 1133.98 375.003 1133.98 399.538 1131.95 399.538Z" fill="#836967" fill-rule="evenodd"/><text font-family="Cambria Math,Cambria Math_MSFontService,sans-serif" font-weight="400" font-size="27" transform="translate(1142.79 395)">𝑭</text><text font-family="Cambria Math,Cambria Math_MSFontService,sans-serif" font-weight="400" font-size="20" transform="translate(1159.79 400)">𝟏</text><text font-family="Cambria Math,Cambria Math_MSFontService,sans-serif" font-weight="400" font-size="27" transform="translate(1192.59 395)">⋅</text><path d="M1258.88 375.003 1260.92 375.003 1260.92 399.538 1258.88 399.538ZM1253.15 375.003 1255.18 375.003 1255.18 399.538 1253.15 399.538ZM1215.01 375.003 1217.04 375.003 1217.04 399.538 1215.01 399.538ZM1209.28 375.003 1211.31 375.003 1211.31 399.538 1209.28 399.538Z" fill="#836967" fill-rule="evenodd"/><text font-family="Cambria Math,Cambria Math_MSFontService,sans-serif" font-weight="400" font-size="27" transform="translate(1220.12 395)">𝑭</text><text font-family="Cambria Math,Cambria Math_MSFontService,sans-serif" font-weight="400" font-size="20" transform="translate(1237.12 400)">𝟐</text><path d="M1128.47 369.129 1195.97 369.129 1263.47 369.129 1263.47 371.129 1195.97 371.129 1128.47 371.129Z" fill="#836967" fill-rule="evenodd"/></g></svg>