<svg width="720" height="227" xmlns="http://www.w3.org/2000/svg" xmlns:xlink="http://www.w3.org/1999/xlink" overflow="hidden"><defs><clipPath id="clip0"><rect x="0" y="0" width="720" height="227"/></clipPath></defs><g clip-path="url(#clip0)"><rect x="0" y="0" width="720" height="227.167" fill="#FFFFFF"/><path d="M36.5001 97.5717 106.5 97.5717 106.5 27.5203 107.5 27.5203 107.5 97.5717 177.5 97.5717 177.5 97.5717 107.5 97.5717 107.5 167.623 106.5 167.623 106.5 97.5717 36.5001 97.5717Z" stroke="#172C51" stroke-width="1.33333" stroke-miterlimit="8" fill="#4472C4" fill-rule="evenodd"/><path d="M106.433 73.8178C108.61 70.0699 114.925 69.6783 120.539 72.9433 126.153 76.2083 128.939 81.8934 126.763 85.6414 128.381 81.5684 124.965 75.9223 119.135 73.0304 114.107 70.5364 108.792 70.8659 106.433 73.8178Z" stroke="#172C51" stroke-width="1.33407" stroke-miterlimit="8" fill="#4472C4" fill-rule="evenodd"/><text fill="#111111" font-family="Arial,Arial_MSFontService,sans-serif" font-weight="400" font-size="15" transform="matrix(1 0 0 1.00073 129.541 65)">θ</text><path d="M0.75573-1.29571 64.447 35.8525 62.9355 38.4439-0.75573 1.29571ZM64.6627 32.5053 70.1698 40.9268 60.1283 40.2796Z" fill="#4472C4" transform="matrix(1 0 0 -1.00073 106.5 97.4985)"/><path d="M376.5 97.5717 446.5 97.5717 446.5 27.5203 447.5 27.5203 447.5 97.5717 517.5 97.5717 517.5 97.5717 447.5 97.5717 447.5 167.623 446.5 167.623 446.5 97.5717 376.5 97.5717Z" stroke="#172C51" stroke-width="1.33333" stroke-miterlimit="8" fill="#4472C4" fill-rule="evenodd"/><path d="M546.5 97.5717 616.5 97.5717 616.5 27.5203 617.5 27.5203 617.5 97.5717 687.5 97.5717 687.5 97.5717 617.5 97.5717 617.5 167.623 616.5 167.623 616.5 97.5717 546.5 97.5717Z" stroke="#172C51" stroke-width="1.33333" stroke-miterlimit="8" fill="#4472C4" fill-rule="evenodd"/><path d="M206.5 97.5717 276.5 97.5717 276.5 27.5203 277.5 27.5203 277.5 97.5717 347.5 97.5717 347.5 97.5717 277.5 97.5717 277.5 167.623 276.5 167.623 276.5 97.5717 206.5 97.5717Z" stroke="#172C51" stroke-width="1.33333" stroke-miterlimit="8" fill="#4472C4" fill-rule="evenodd"/><path d="M277.646 96.6033 311.203 136.375 308.911 138.312 275.354 98.5401ZM312.528 133.291 314.896 143.078 305.651 139.102Z" fill="#4472C4"/><path d="M0.985015-1.13126 47.5531 39.4167 45.5831 41.6793-0.985015 1.13126ZM48.3919 36.1692 52.2244 45.4731 42.4818 42.9567Z" fill="#4472C4" transform="matrix(-1 0 0 1.00073 446.724 97.5717)"/><path d="M615.424 97.7982 595.014 49.0333 597.781 47.8734 618.191 96.6383ZM592.826 51.5777 593.5 41.5305 601.128 48.0981Z" fill="#4472C4"/><path d="M7.68314 38.7395C3.43986 38.7395 0 30.0674 0 19.3698 -9.78167e-16 8.67214 3.43986-2.46603e-15 7.68314-4.93206e-15 3.43986 1.06487 0.342412 10.6003 0.764797 21.2979 1.12906 30.5236 4.02373 37.8212 7.68314 38.7396Z" stroke="#172C51" stroke-width="1.33341" stroke-miterlimit="8" fill="#4472C4" fill-rule="evenodd" transform="matrix(-0.962578 0.271005 0.270806 0.963285 283.88 68.2792)"/><text fill="#111111" font-family="Arial,Arial_MSFontService,sans-serif" font-weight="400" font-size="15" transform="matrix(1 0 0 1.00073 293.237 87)">θ</text><text fill="#111111" font-family="Arial,Arial_MSFontService,sans-serif" font-weight="400" font-size="15" transform="matrix(1 0 0 1.00073 460.187 117)">θ</text><path d="M447.594 80.4027C456.247 84.8159 459.854 95.0854 455.65 103.34 451.446 111.595 441.024 114.709 432.371 110.296 441.442 113.888 451.506 109.751 454.848 101.057 457.731 93.5591 454.696 84.9173 447.594 80.4027Z" stroke="#172C51" stroke-width="1.33354" stroke-miterlimit="8" fill="#4472C4" fill-rule="evenodd"/><path d="M618.005 108.007C610.355 110.705 602.259 107.514 599.923 100.881 597.587 94.2468 601.895 86.6821 609.545 83.9841 602.128 87.3424 598.626 95.2248 601.723 101.59 604.394 107.079 611.207 109.764 618.005 108.007Z" stroke="#172C51" stroke-width="1.33344" stroke-miterlimit="8" fill="#4472C4" fill-rule="evenodd"/><path d="M617.834 83.5476C625.857 83.9502 632.081 89.8438 631.737 96.7112 631.393 103.579 624.61 108.819 616.588 108.417 624.645 108.136 630.808 102.308 630.353 95.4008 629.961 89.4438 624.723 84.4843 617.834 83.5475Z" stroke="#172C51" stroke-width="1.33334" stroke-miterlimit="8" fill="#4472C4" fill-rule="evenodd"/><text fill="#111111" font-family="Arial,Arial_MSFontService,sans-serif" font-weight="400" font-size="15" transform="matrix(1 0 0 1.00073 604.814 125)">θ</text><text fill="#111111" font-family="Times New Roman,Times New Roman_MSFontService,sans-serif" font-weight="400" font-size="15" transform="matrix(1 0 0 1.00073 98.8646 193)">(a)</text><text fill="#111111" font-family="Times New Roman,Times New Roman_MSFontService,sans-serif" font-weight="400" font-size="15" transform="matrix(1 0 0 1.00073 269.362 193)">(b)</text><text fill="#111111" font-family="Times New Roman,Times New Roman_MSFontService,sans-serif" font-weight="400" font-size="15" transform="matrix(1 0 0 1.00073 438.521 193)">(c)</text><text fill="#111111" font-family="Times New Roman,Times New Roman_MSFontService,sans-serif" font-weight="400" font-size="15" transform="matrix(1 0 0 1.00073 608.661 193)">(d)</text></g></svg>