<svg width="1280" height="567" xmlns="http://www.w3.org/2000/svg" xmlns:xlink="http://www.w3.org/1999/xlink" overflow="hidden"><g><rect x="0" y="0" width="1280" height="567" fill="#FFFFFF"/><rect x="519.5" y="442.5" width="44" height="43" stroke="#172C51" stroke-width="1.33333" stroke-miterlimit="8" fill="#8FAADC"/><rect x="608.5" y="442.5" width="44" height="43" stroke="#172C51" stroke-width="1.33333" stroke-miterlimit="8" fill="#8FAADC"/><rect x="563.5" y="442.5" width="45" height="43" stroke="#172C51" stroke-width="1.33333" stroke-miterlimit="8" fill="#8FAADC"/><rect x="785.5" y="442.5" width="45" height="43" stroke="#172C51" stroke-width="1.33333" stroke-miterlimit="8" fill="#8FAADC"/><rect x="741.5" y="442.5" width="44" height="43" stroke="#172C51" stroke-width="1.33333" stroke-miterlimit="8" fill="#8FAADC"/><rect x="830.5" y="442.5" width="44" height="43" stroke="#172C51" stroke-width="1.33333" stroke-miterlimit="8" fill="#8FAADC"/><rect x="874.5" y="442.5" width="45" height="43" stroke="#172C51" stroke-width="1.33333" stroke-miterlimit="8" fill="#F8CBAD"/><rect x="919.5" y="442.5" width="44" height="43" stroke="#172C51" stroke-width="1.33333" stroke-miterlimit="8" fill="#F8CBAD"/><rect x="1052.5" y="442.5" width="44" height="43" stroke="#172C51" stroke-width="1.33333" stroke-miterlimit="8" fill="#F8CBAD"/><rect x="1096.5" y="442.5" width="44" height="43" stroke="#172C51" stroke-width="1.33333" stroke-miterlimit="8" fill="#F8CBAD"/><text font-family="Calibri,Calibri_MSFontService,sans-serif" font-weight="400" font-size="19" transform="translate(683.401 469)">……</text><text font-family="Calibri,Calibri_MSFontService,sans-serif" font-weight="400" font-size="19" transform="translate(994.11 467)">……</text><rect x="509.5" y="455.5" width="44" height="42" stroke="#172C51" stroke-width="1.33333" stroke-miterlimit="8" fill="#8FAADC"/><rect x="598.5" y="455.5" width="44" height="42" stroke="#172C51" stroke-width="1.33333" stroke-miterlimit="8" fill="#8FAADC"/><rect x="553.5" y="455.5" width="45" height="42" stroke="#172C51" stroke-width="1.33333" stroke-miterlimit="8" fill="#8FAADC"/><rect x="775.5" y="455.5" width="45" height="42" stroke="#172C51" stroke-width="1.33333" stroke-miterlimit="8" fill="#8FAADC"/><rect x="731.5" y="455.5" width="44" height="42" stroke="#172C51" stroke-width="1.33333" stroke-miterlimit="8" fill="#8FAADC"/><rect x="820.5" y="455.5" width="44" height="42" stroke="#172C51" stroke-width="1.33333" stroke-miterlimit="8" fill="#8FAADC"/><rect x="864.5" y="455.5" width="45" height="42" stroke="#172C51" stroke-width="1.33333" stroke-miterlimit="8" fill="#F8CBAD"/><rect x="909.5" y="455.5" width="44" height="42" stroke="#172C51" stroke-width="1.33333" stroke-miterlimit="8" fill="#F8CBAD"/><rect x="1042.5" y="455.5" width="44" height="42" stroke="#172C51" stroke-width="1.33333" stroke-miterlimit="8" fill="#F8CBAD"/><rect x="1086.5" y="455.5" width="44" height="42" stroke="#172C51" stroke-width="1.33333" stroke-miterlimit="8" fill="#F8CBAD"/><text font-family="Calibri,Calibri_MSFontService,sans-serif" font-weight="400" font-size="19" transform="translate(673.423 481)">……</text><text font-family="Calibri,Calibri_MSFontService,sans-serif" font-weight="400" font-size="19" transform="translate(984.132 479)">……</text><rect x="1096.5" y="279.5" width="44" height="43" stroke="#172C51" stroke-width="1.33333" stroke-miterlimit="8" fill="#FFFFFF"/><rect x="1052.5" y="279.5" width="44" height="43" stroke="#172C51" stroke-width="1.33333" stroke-miterlimit="8" fill="#FFFFFF"/><text font-family="Calibri,Calibri_MSFontService,sans-serif" font-weight="400" font-size="19" transform="translate(994.11 306)">……</text><rect x="1086.5" y="292.5" width="44" height="42" stroke="#172C51" stroke-width="1.33333" stroke-miterlimit="8" fill="#FFFFFF"/><rect x="1042.5" y="292.5" width="44" height="42" stroke="#172C51" stroke-width="1.33333" stroke-miterlimit="8" fill="#FFFFFF"/><text font-family="Calibri,Calibri_MSFontService,sans-serif" font-weight="400" font-size="19" transform="translate(984.132 318)">……</text><rect x="341.5" y="280.5" width="45" height="43" stroke="#172C51" stroke-width="1.33333" stroke-miterlimit="8" fill="#8FAADC"/><rect x="430.5" y="280.5" width="45" height="43" stroke="#172C51" stroke-width="1.33333" stroke-miterlimit="8" fill="#8FAADC"/><rect x="386.5" y="280.5" width="44" height="43" stroke="#172C51" stroke-width="1.33333" stroke-miterlimit="8" fill="#8FAADC"/><rect x="608.5" y="280.5" width="44" height="43" stroke="#172C51" stroke-width="1.33333" stroke-miterlimit="8" fill="#8FAADC"/><rect x="563.5" y="280.5" width="45" height="43" stroke="#172C51" stroke-width="1.33333" stroke-miterlimit="8" fill="#8FAADC"/><rect x="652.5" y="280.5" width="45" height="43" stroke="#172C51" stroke-width="1.33333" stroke-miterlimit="8" fill="#8FAADC"/><rect x="697.5" y="280.5" width="44" height="43" stroke="#172C51" stroke-width="1.33333" stroke-miterlimit="8" fill="#F8CBAD"/><rect x="741.5" y="280.5" width="44" height="43" stroke="#172C51" stroke-width="1.33333" stroke-miterlimit="8" fill="#F8CBAD"/><rect x="874.5" y="280.5" width="44" height="43" stroke="#172C51" stroke-width="1.33333" stroke-miterlimit="8" fill="#F8CBAD"/><rect x="918.5" y="280.5" width="45" height="43" stroke="#172C51" stroke-width="1.33333" stroke-miterlimit="8" fill="#F8CBAD"/><text font-family="Calibri,Calibri_MSFontService,sans-serif" font-weight="400" font-size="19" transform="translate(505.848 307)">……</text><text font-family="Calibri,Calibri_MSFontService,sans-serif" font-weight="400" font-size="19" transform="translate(816.558 305)">……</text><rect x="331.5" y="292.5" width="45" height="43" stroke="#172C51" stroke-width="1.33333" stroke-miterlimit="8" fill="#8FAADC"/><rect x="420.5" y="292.5" width="45" height="43" stroke="#172C51" stroke-width="1.33333" stroke-miterlimit="8" fill="#8FAADC"/><rect x="376.5" y="292.5" width="44" height="43" stroke="#172C51" stroke-width="1.33333" stroke-miterlimit="8" fill="#8FAADC"/><rect x="598.5" y="292.5" width="44" height="43" stroke="#172C51" stroke-width="1.33333" stroke-miterlimit="8" fill="#8FAADC"/><rect x="553.5" y="292.5" width="45" height="43" stroke="#172C51" stroke-width="1.33333" stroke-miterlimit="8" fill="#8FAADC"/><rect x="642.5" y="292.5" width="45" height="43" stroke="#172C51" stroke-width="1.33333" stroke-miterlimit="8" fill="#8FAADC"/><rect x="687.5" y="292.5" width="44" height="43" stroke="#172C51" stroke-width="1.33333" stroke-miterlimit="8" fill="#F8CBAD"/><rect x="731.5" y="292.5" width="44" height="43" stroke="#172C51" stroke-width="1.33333" stroke-miterlimit="8" fill="#F8CBAD"/><rect x="864.5" y="292.5" width="45" height="43" stroke="#172C51" stroke-width="1.33333" stroke-miterlimit="8" fill="#F8CBAD"/><rect x="909.5" y="292.5" width="44" height="43" stroke="#172C51" stroke-width="1.33333" stroke-miterlimit="8" fill="#F8CBAD"/><text font-family="Calibri,Calibri_MSFontService,sans-serif" font-weight="400" font-size="19" transform="translate(495.87 319)">……</text><text font-family="Calibri,Calibri_MSFontService,sans-serif" font-weight="400" font-size="19" transform="translate(806.579 317)">……</text><rect x="1095.5" y="184.5" width="44" height="43" stroke="#172C51" stroke-width="1.33333" stroke-miterlimit="8" fill="#FFFFFF"/><rect x="1050.5" y="184.5" width="45" height="43" stroke="#172C51" stroke-width="1.33333" stroke-miterlimit="8" fill="#FFFFFF"/><text font-family="Calibri,Calibri_MSFontService,sans-serif" font-weight="400" font-size="19" transform="translate(992.596 211)">……</text><rect x="1085.5" y="196.5" width="44" height="43" stroke="#172C51" stroke-width="1.33333" stroke-miterlimit="8" fill="#FFFFFF"/><rect x="1040.5" y="196.5" width="45" height="43" stroke="#172C51" stroke-width="1.33333" stroke-miterlimit="8" fill="#FFFFFF"/><text font-family="Calibri,Calibri_MSFontService,sans-serif" font-weight="400" font-size="19" transform="translate(982.618 223)">……</text><rect x="296.5" y="184.5" width="44" height="43" stroke="#172C51" stroke-width="1.33333" stroke-miterlimit="8" fill="#8FAADC"/><rect x="384.5" y="184.5" width="45" height="43" stroke="#172C51" stroke-width="1.33333" stroke-miterlimit="8" fill="#8FAADC"/><rect x="340.5" y="184.5" width="44" height="43" stroke="#172C51" stroke-width="1.33333" stroke-miterlimit="8" fill="#8FAADC"/><rect x="562.5" y="184.5" width="44" height="43" stroke="#172C51" stroke-width="1.33333" stroke-miterlimit="8" fill="#8FAADC"/><rect x="518.5" y="184.5" width="44" height="43" stroke="#172C51" stroke-width="1.33333" stroke-miterlimit="8" fill="#8FAADC"/><rect x="606.5" y="184.5" width="45" height="43" stroke="#172C51" stroke-width="1.33333" stroke-miterlimit="8" fill="#8FAADC"/><rect x="651.5" y="184.5" width="44" height="43" stroke="#172C51" stroke-width="1.33333" stroke-miterlimit="8" fill="#F8CBAD"/><rect x="695.5" y="184.5" width="44" height="43" stroke="#172C51" stroke-width="1.33333" stroke-miterlimit="8" fill="#F8CBAD"/><rect x="828.5" y="184.5" width="45" height="43" stroke="#172C51" stroke-width="1.33333" stroke-miterlimit="8" fill="#F8CBAD"/><rect x="917.5" y="184.5" width="44" height="43" stroke="#172C51" stroke-width="1.33333" stroke-miterlimit="8" fill="#FFFFFF"/><rect x="873.5" y="184.5" width="44" height="43" stroke="#172C51" stroke-width="1.33333" stroke-miterlimit="8" fill="#F8CBAD"/><text font-family="Calibri,Calibri_MSFontService,sans-serif" font-weight="400" font-size="19" transform="translate(459.951 211)">……</text><text font-family="Calibri,Calibri_MSFontService,sans-serif" font-weight="400" font-size="19" transform="translate(770.661 209)">……</text><rect x="286.5" y="196.5" width="44" height="43" stroke="#172C51" stroke-width="1.33333" stroke-miterlimit="8" fill="#8FAADC"/><rect x="374.5" y="196.5" width="45" height="43" stroke="#172C51" stroke-width="1.33333" stroke-miterlimit="8" fill="#8FAADC"/><rect x="330.5" y="196.5" width="44" height="43" stroke="#172C51" stroke-width="1.33333" stroke-miterlimit="8" fill="#8FAADC"/><rect x="552.5" y="196.5" width="44" height="43" stroke="#172C51" stroke-width="1.33333" stroke-miterlimit="8" fill="#8FAADC"/><rect x="508.5" y="196.5" width="44" height="43" stroke="#172C51" stroke-width="1.33333" stroke-miterlimit="8" fill="#8FAADC"/><rect x="596.5" y="196.5" width="45" height="43" stroke="#172C51" stroke-width="1.33333" stroke-miterlimit="8" fill="#8FAADC"/><rect x="641.5" y="196.5" width="44" height="43" stroke="#172C51" stroke-width="1.33333" stroke-miterlimit="8" fill="#F8CBAD"/><rect x="685.5" y="196.5" width="44" height="43" stroke="#172C51" stroke-width="1.33333" stroke-miterlimit="8" fill="#F8CBAD"/><rect x="818.5" y="196.5" width="45" height="43" stroke="#172C51" stroke-width="1.33333" stroke-miterlimit="8" fill="#F8CBAD"/><rect x="907.5" y="196.5" width="44" height="43" stroke="#172C51" stroke-width="1.33333" stroke-miterlimit="8" fill="#FFFFFF"/><rect x="863.5" y="196.5" width="44" height="43" stroke="#172C51" stroke-width="1.33333" stroke-miterlimit="8" fill="#F8CBAD"/><text font-family="Calibri,Calibri_MSFontService,sans-serif" font-weight="400" font-size="19" transform="translate(449.973 223)">……</text><text font-family="Calibri,Calibri_MSFontService,sans-serif" font-weight="400" font-size="19" transform="translate(760.683 221)">……</text><rect x="252.5" y="92.5001" width="44" height="42" stroke="#172C51" stroke-width="1.33333" stroke-miterlimit="8" fill="#8FAADC"/><rect x="341.5" y="92.5001" width="44" height="42" stroke="#172C51" stroke-width="1.33333" stroke-miterlimit="8" fill="#8FAADC"/><rect x="296.5" y="92.5001" width="45" height="42" stroke="#172C51" stroke-width="1.33333" stroke-miterlimit="8" fill="#8FAADC"/><rect x="518.5" y="92.5001" width="45" height="42" stroke="#172C51" stroke-width="1.33333" stroke-miterlimit="8" fill="#8FAADC"/><rect x="474.5" y="92.5001" width="44" height="42" stroke="#172C51" stroke-width="1.33333" stroke-miterlimit="8" fill="#8FAADC"/><rect x="563.5" y="92.5001" width="44" height="42" stroke="#172C51" stroke-width="1.33333" stroke-miterlimit="8" fill="#8FAADC"/><rect x="607.5" y="92.5001" width="44" height="42" stroke="#172C51" stroke-width="1.33333" stroke-miterlimit="8" fill="#F8CBAD"/><rect x="651.5" y="92.5001" width="45" height="42" stroke="#172C51" stroke-width="1.33333" stroke-miterlimit="8" fill="#F8CBAD"/><rect x="785.5" y="92.5001" width="44" height="42" stroke="#172C51" stroke-width="1.33333" stroke-miterlimit="8" fill="#F8CBAD"/><rect x="873.5" y="92.5001" width="45" height="42" stroke="#172C51" stroke-width="1.33333" stroke-miterlimit="8" fill="#FFFFFF"/><rect x="829.5" y="92.5001" width="44" height="42" stroke="#172C51" stroke-width="1.33333" stroke-miterlimit="8" fill="#F8CBAD"/><rect x="918.5" y="92.5001" width="44" height="42" stroke="#172C51" stroke-width="1.33333" stroke-miterlimit="8" fill="#FFFFFF"/><text font-family="Calibri,Calibri_MSFontService,sans-serif" font-weight="400" font-size="19" transform="translate(416.253 118)">……</text><text font-family="Calibri,Calibri_MSFontService,sans-serif" font-weight="400" font-size="19" transform="translate(726.962 117)">……</text><rect x="1095.5" y="92.5001" width="45" height="42" stroke="#172C51" stroke-width="1.33333" stroke-miterlimit="8" fill="#FFFFFF"/><rect x="1051.5" y="92.5001" width="44" height="42" stroke="#172C51" stroke-width="1.33333" stroke-miterlimit="8" fill="#FFFFFF"/><text font-family="Calibri,Calibri_MSFontService,sans-serif" font-weight="400" font-size="19" transform="translate(993.285 118)">……</text><rect x="241.5" y="102.5" width="45" height="43" stroke="#172C51" stroke-width="1.33333" stroke-miterlimit="8" fill="#8FAADC"/><rect x="330.5" y="102.5" width="44" height="43" stroke="#172C51" stroke-width="1.33333" stroke-miterlimit="8" fill="#8FAADC"/><rect x="286.5" y="102.5" width="44" height="43" stroke="#172C51" stroke-width="1.33333" stroke-miterlimit="8" fill="#8FAADC"/><rect x="508.5" y="102.5" width="44" height="43" stroke="#172C51" stroke-width="1.33333" stroke-miterlimit="8" fill="#8FAADC"/><rect x="463.5" y="102.5" width="45" height="43" stroke="#172C51" stroke-width="1.33333" stroke-miterlimit="8" fill="#8FAADC"/><rect x="552.5" y="102.5" width="44" height="43" stroke="#172C51" stroke-width="1.33333" stroke-miterlimit="8" fill="#8FAADC"/><rect x="596.5" y="102.5" width="45" height="43" stroke="#172C51" stroke-width="1.33333" stroke-miterlimit="8" fill="#F8CBAD"/><rect x="641.5" y="102.5" width="44" height="43" stroke="#172C51" stroke-width="1.33333" stroke-miterlimit="8" fill="#F8CBAD"/><rect x="774.5" y="102.5" width="44" height="43" stroke="#172C51" stroke-width="1.33333" stroke-miterlimit="8" fill="#F8CBAD"/><rect x="863.5" y="102.5" width="44" height="43" stroke="#172C51" stroke-width="1.33333" stroke-miterlimit="8" fill="#FFFFFF"/><rect x="818.5" y="102.5" width="45" height="43" stroke="#172C51" stroke-width="1.33333" stroke-miterlimit="8" fill="#F8CBAD"/><rect x="907.5" y="102.5" width="44" height="43" stroke="#172C51" stroke-width="1.33333" stroke-miterlimit="8" fill="#FFFFFF"/><text font-family="Calibri,Calibri_MSFontService,sans-serif" font-weight="400" font-size="19" transform="translate(405.586 129)">……</text><text font-family="Calibri,Calibri_MSFontService,sans-serif" font-weight="400" font-size="19" transform="translate(716.295 127)">……</text><rect x="1085.5" y="102.5" width="44" height="43" stroke="#172C51" stroke-width="1.33333" stroke-miterlimit="8" fill="#FFFFFF"/><rect x="1040.5" y="102.5" width="45" height="43" stroke="#172C51" stroke-width="1.33333" stroke-miterlimit="8" fill="#FFFFFF"/><text font-family="Calibri,Calibri_MSFontService,sans-serif" font-weight="400" font-size="19" transform="translate(982.618 129)">……</text><rect x="320.5" y="305.5" width="44" height="43" stroke="#172C51" stroke-width="1.33333" stroke-miterlimit="8" fill="#8FAADC"/><rect x="409.5" y="305.5" width="44" height="43" stroke="#172C51" stroke-width="1.33333" stroke-miterlimit="8" fill="#8FAADC"/><rect x="364.5" y="305.5" width="45" height="43" stroke="#172C51" stroke-width="1.33333" stroke-miterlimit="8" fill="#8FAADC"/><rect x="586.5" y="305.5" width="45" height="43" stroke="#172C51" stroke-width="1.33333" stroke-miterlimit="8" fill="#8FAADC"/><rect x="542.5" y="305.5" width="44" height="43" stroke="#172C51" stroke-width="1.33333" stroke-miterlimit="8" fill="#8FAADC"/><rect x="631.5" y="305.5" width="44" height="43" stroke="#172C51" stroke-width="1.33333" stroke-miterlimit="8" fill="#8FAADC"/><rect x="276.5" y="210.5" width="44" height="42" stroke="#172C51" stroke-width="1.33333" stroke-miterlimit="8" fill="#8FAADC"/><rect x="364.5" y="210.5" width="45" height="42" stroke="#172C51" stroke-width="1.33333" stroke-miterlimit="8" fill="#8FAADC"/><rect x="320.5" y="210.5" width="44" height="42" stroke="#172C51" stroke-width="1.33333" stroke-miterlimit="8" fill="#8FAADC"/><rect x="542.5" y="210.5" width="44" height="42" stroke="#172C51" stroke-width="1.33333" stroke-miterlimit="8" fill="#8FAADC"/><rect x="498.5" y="210.5" width="44" height="42" stroke="#172C51" stroke-width="1.33333" stroke-miterlimit="8" fill="#8FAADC"/><rect x="586.5" y="210.5" width="45" height="42" stroke="#172C51" stroke-width="1.33333" stroke-miterlimit="8" fill="#8FAADC"/><rect x="231.5" y="114.5" width="45" height="43" stroke="#172C51" stroke-width="1.33333" stroke-miterlimit="8" fill="#8FAADC"/><rect x="320.5" y="114.5" width="44" height="43" stroke="#172C51" stroke-width="1.33333" stroke-miterlimit="8" fill="#8FAADC"/><rect x="276.5" y="114.5" width="44" height="43" stroke="#172C51" stroke-width="1.33333" stroke-miterlimit="8" fill="#8FAADC"/><rect x="498.5" y="114.5" width="44" height="43" stroke="#172C51" stroke-width="1.33333" stroke-miterlimit="8" fill="#8FAADC"/><rect x="453.5" y="114.5" width="45" height="43" stroke="#172C51" stroke-width="1.33333" stroke-miterlimit="8" fill="#8FAADC"/><rect x="542.5" y="114.5" width="44" height="43" stroke="#172C51" stroke-width="1.33333" stroke-miterlimit="8" fill="#8FAADC"/><rect x="586.5" y="114.5" width="45" height="43" stroke="#172C51" stroke-width="1.33333" stroke-miterlimit="8" fill="#F8CBAD"/><rect x="631.5" y="114.5" width="44" height="43" stroke="#172C51" stroke-width="1.33333" stroke-miterlimit="8" fill="#F8CBAD"/><rect x="764.5" y="114.5" width="44" height="43" stroke="#172C51" stroke-width="1.33333" stroke-miterlimit="8" fill="#F8CBAD"/><rect x="853.5" y="114.5" width="44" height="43" stroke="#172C51" stroke-width="1.33333" stroke-miterlimit="8" fill="#FFFFFF"/><rect x="808.5" y="114.5" width="45" height="43" stroke="#172C51" stroke-width="1.33333" stroke-miterlimit="8" fill="#F8CBAD"/><rect x="897.5" y="114.5" width="44" height="43" stroke="#172C51" stroke-width="1.33333" stroke-miterlimit="8" fill="#FFFFFF"/><rect x="498.5" y="467.5" width="44" height="42" stroke="#172C51" stroke-width="1.33333" stroke-miterlimit="8" fill="#8FAADC"/><rect x="586.5" y="467.5" width="45" height="42" stroke="#172C51" stroke-width="1.33333" stroke-miterlimit="8" fill="#8FAADC"/><rect x="542.5" y="467.5" width="44" height="42" stroke="#172C51" stroke-width="1.33333" stroke-miterlimit="8" fill="#8FAADC"/><rect x="764.5" y="467.5" width="44" height="42" stroke="#172C51" stroke-width="1.33333" stroke-miterlimit="8" fill="#8FAADC"/><rect x="719.5" y="467.5" width="45" height="42" stroke="#172C51" stroke-width="1.33333" stroke-miterlimit="8" fill="#8FAADC"/><rect x="808.5" y="467.5" width="45" height="42" stroke="#172C51" stroke-width="1.33333" stroke-miterlimit="8" fill="#8FAADC"/><text font-family="Calibri,Calibri_MSFontService,sans-serif" font-weight="400" font-size="19" transform="translate(439.995 236)">……</text><text font-family="Calibri,Calibri_MSFontService,sans-serif" font-weight="400" font-size="19" transform="translate(484.382 333)">……</text><text font-family="Calibri,Calibri_MSFontService,sans-serif" font-weight="400" font-size="19" transform="translate(661.93 493)">……</text><text font-family="Calibri,Calibri_MSFontService,sans-serif" font-weight="400" font-size="19" transform="translate(395.608 141)">……</text><path d="M258.5 95.5001C258.5 85.2828 273.59 77.0001 292.204 77.0001L378.796 77.0001C397.41 77.0001 412.5 68.7174 412.5 58.5001 412.5 68.7174 427.59 77.0001 446.204 77.0001L532.796 77.0001C551.41 77.0001 566.5 85.2828 566.5 95.5001" stroke="#4472C4" stroke-width="3" stroke-miterlimit="8" fill="none" fill-rule="evenodd"/><text font-family="Times New Roman,Times New Roman_MSFontService,sans-serif" font-weight="700" font-size="21" transform="translate(404.714 46)">L</text><text font-family="Calibri,Calibri_MSFontService,sans-serif" font-weight="400" font-size="19" transform="translate(706.317 139)">……</text><path d="M607.5 95.5001C607.5 85.2828 622.59 77 641.204 77L687.796 77.0002C706.41 77.0002 721.5 68.7174 721.5 58.5001 721.5 68.7174 736.59 77.0002 755.204 77.0002L801.796 77.0002C820.41 77.0002 835.5 85.283 835.5 95.5004" stroke="#4472C4" stroke-width="3" stroke-miterlimit="8" fill="none" fill-rule="evenodd"/><text font-family="Times New Roman,Times New Roman_MSFontService,sans-serif" font-weight="700" font-size="21" transform="translate(714.096 46)">T</text><text font-family="Times New Roman,Times New Roman_MSFontService,sans-serif" font-weight="700" font-size="21" transform="translate(137.119 144)">1</text><text font-family="Times New Roman,Times New Roman_MSFontService,sans-serif" font-weight="700" font-size="21" transform="translate(193.715 238)">2</text><text font-family="Times New Roman,Times New Roman_MSFontService,sans-serif" font-weight="700" font-size="21" transform="translate(236.495 330)">3</text><text font-family="Times New Roman,Times New Roman_MSFontService,sans-serif" font-weight="700" font-size="21" transform="translate(413.713 496)">n</text><rect x="1075.5" y="114.5" width="44" height="43" stroke="#172C51" stroke-width="1.33333" stroke-miterlimit="8" fill="#FFFFFF"/><rect x="1030.5" y="114.5" width="45" height="43" stroke="#172C51" stroke-width="1.33333" stroke-miterlimit="8" fill="#FFFFFF"/><text font-family="Calibri,Calibri_MSFontService,sans-serif" font-weight="400" font-size="19" transform="translate(972.64 141)">……</text><rect x="675.5" y="210.5" width="44" height="42" stroke="#172C51" stroke-width="1.33333" stroke-miterlimit="8" fill="#F8CBAD"/><rect x="631.5" y="210.5" width="44" height="42" stroke="#172C51" stroke-width="1.33333" stroke-miterlimit="8" fill="#F8CBAD"/><rect x="853.5" y="210.5" width="44" height="42" stroke="#172C51" stroke-width="1.33333" stroke-miterlimit="8" fill="#F8CBAD"/><rect x="808.5" y="210.5" width="45" height="42" stroke="#172C51" stroke-width="1.33333" stroke-miterlimit="8" fill="#F8CBAD"/><text font-family="Calibri,Calibri_MSFontService,sans-serif" font-weight="400" font-size="19" transform="translate(750.704 236)">……</text><rect x="897.5" y="210.5" width="44" height="42" stroke="#172C51" stroke-width="1.33333" stroke-miterlimit="8" fill="#FFFFFF"/><rect x="1075.5" y="210.5" width="44" height="42" stroke="#172C51" stroke-width="1.33333" stroke-miterlimit="8" fill="#FFFFFF"/><rect x="1030.5" y="210.5" width="45" height="42" stroke="#172C51" stroke-width="1.33333" stroke-miterlimit="8" fill="#FFFFFF"/><text font-family="Calibri,Calibri_MSFontService,sans-serif" font-weight="400" font-size="19" transform="translate(972.64 236)">……</text><rect x="675.5" y="305.5" width="44" height="42" stroke="#172C51" stroke-width="1.33333" stroke-miterlimit="8" fill="#F8CBAD"/><rect x="719.5" y="305.5" width="45" height="42" stroke="#172C51" stroke-width="1.33333" stroke-miterlimit="8" fill="#F8CBAD"/><rect x="897.5" y="305.5" width="44" height="42" stroke="#172C51" stroke-width="1.33333" stroke-miterlimit="8" fill="#F8CBAD"/><rect x="853.5" y="305.5" width="44" height="42" stroke="#172C51" stroke-width="1.33333" stroke-miterlimit="8" fill="#F8CBAD"/><text font-family="Calibri,Calibri_MSFontService,sans-serif" font-weight="400" font-size="19" transform="translate(795.091 332)">……</text><rect x="1075.5" y="304.5" width="44" height="42" stroke="#172C51" stroke-width="1.33333" stroke-miterlimit="8" fill="#FFFFFF"/><rect x="1030.5" y="304.5" width="45" height="42" stroke="#172C51" stroke-width="1.33333" stroke-miterlimit="8" fill="#FFFFFF"/><text font-family="Calibri,Calibri_MSFontService,sans-serif" font-weight="400" font-size="19" transform="translate(972.64 330)">……</text><rect x="853.5" y="467.5" width="44" height="42" stroke="#172C51" stroke-width="1.33333" stroke-miterlimit="8" fill="#F8CBAD"/><rect x="897.5" y="467.5" width="44" height="42" stroke="#172C51" stroke-width="1.33333" stroke-miterlimit="8" fill="#F8CBAD"/><rect x="1075.5" y="467.5" width="44" height="42" stroke="#172C51" stroke-width="1.33333" stroke-miterlimit="8" fill="#F8CBAD"/><rect x="1030.5" y="467.5" width="45" height="42" stroke="#172C51" stroke-width="1.33333" stroke-miterlimit="8" fill="#F8CBAD"/><text font-family="Calibri,Calibri_MSFontService,sans-serif" font-weight="400" font-size="19" transform="translate(972.64 493)">……</text><text font-family="Calibri,Calibri_MSFontService,sans-serif" font-weight="400" font-size="19" transform="matrix(6.12323e-17 1 -1 6.12323e-17 779.656 394)">……</text><path d="M227.041 118.952C221.806 116.422 217.904 113.663 218.325 112.791L224.416 100.188C224.838 99.3152 220.936 96.5566 215.7 94.0262 220.936 96.5566 225.522 97.9005 225.944 97.028L232.035 84.425C232.457 83.5525 237.043 84.8965 242.278 87.4268" stroke="#4472C4" stroke-width="3" stroke-miterlimit="8" fill="none" fill-rule="evenodd"/><text font-family="Times New Roman,Times New Roman_MSFontService,sans-serif" font-weight="700" font-size="21" transform="translate(196.175 89)">d</text></g></svg>